<svg width="16" height="16" viewBox="0 0 16 16" fill="none" xmlns="http://www.w3.org/2000/svg">
<path d="M12.5835 8.75046H3.4165V11.3335C3.41654 11.488 3.4782 11.6362 3.5874 11.7456C3.6968 11.855 3.84578 11.9165 4.00049 11.9165H12.0005C12.1551 11.9164 12.3033 11.8549 12.4126 11.7456C12.5219 11.6362 12.5835 11.4881 12.5835 11.3335V8.75046ZM14.0835 11.3335C14.0835 11.8859 13.8638 12.4155 13.4731 12.8061C13.1022 13.1771 12.6057 13.3907 12.0835 13.4116V14.0005C12.0832 14.4145 11.7475 14.7505 11.3335 14.7505C10.9194 14.7505 10.5838 14.4145 10.5835 14.0005V13.4165H5.4165V14.0005C5.41624 14.4145 5.08055 14.7505 4.6665 14.7505C4.2526 14.7503 3.91677 14.4143 3.9165 14.0005V13.4116C3.39443 13.3906 2.89776 13.177 2.52686 12.8061C2.13635 12.4155 1.91654 11.8858 1.9165 11.3335V8.75046H1.3335C0.919445 8.75046 0.58376 8.41445 0.583496 8.00046C0.583496 7.58625 0.919283 7.25046 1.3335 7.25046H1.9165V3.33347C1.9165 3.31964 1.91769 3.30529 1.91846 3.29148C1.94166 2.87403 2.08484 2.47181 2.33154 2.13425C2.57824 1.79681 2.91749 1.53796 3.30811 1.38913C3.69894 1.24029 4.12483 1.20841 4.53369 1.29636C4.94184 1.38417 5.31603 1.58771 5.61084 1.88328L5.99951 2.27195L6.13623 2.13621C6.42904 1.84339 6.90386 1.84356 7.19678 2.13621C7.48967 2.4291 7.48967 2.90386 7.19678 3.19675L6.53662 3.85691C6.53453 3.85905 6.53288 3.86162 6.53076 3.86374C6.52933 3.86518 6.52732 3.86623 6.52588 3.86765L5.86377 4.53074C5.57094 4.8233 5.09605 4.8233 4.80322 4.53074C4.51033 4.23784 4.51033 3.76211 4.80322 3.46921L4.93896 3.33249L4.55029 2.9448L4.54932 2.94285C4.4588 2.85195 4.34367 2.78916 4.21826 2.76218C4.09284 2.73522 3.96218 2.74582 3.84229 2.79148C3.72245 2.83716 3.61816 2.91645 3.54248 3.01999C3.46846 3.12136 3.42498 3.24156 3.4165 3.36667V7.25046H14.6665C15.0807 7.25046 15.4165 7.58625 15.4165 8.00046C15.4162 8.41445 15.0806 8.75046 14.6665 8.75046H14.0835V11.3335Z" fill="#1D7AF2"/>
</svg>
