<svg width="16" height="16" viewBox="0 0 16 16" fill="none" xmlns="http://www.w3.org/2000/svg">
<path d="M13.9165 7.99976C13.9164 7.84516 13.8549 7.69697 13.7456 7.58765C13.6362 7.47835 13.4881 7.41675 13.3335 7.41675H2.6665C2.51191 7.41683 2.36371 7.47833 2.25439 7.58765C2.14507 7.69697 2.08358 7.84516 2.0835 7.99976V11.2498H13.9165V7.99976ZM12.5835 3.99976C12.5834 3.84516 12.5219 3.69697 12.4126 3.58765C12.3033 3.47833 12.1551 3.41683 12.0005 3.41675H8.75049V5.91675H12.5835V3.99976ZM3.4165 5.91675H7.25049V3.41675H4.00049C3.84578 3.41675 3.6968 3.47825 3.5874 3.58765C3.47818 3.69695 3.41659 3.84524 3.4165 3.99976V5.91675ZM14.0835 6.05737C14.352 6.16103 14.5987 6.31968 14.8062 6.5271C15.1968 6.91772 15.4164 7.44734 15.4165 7.99976V13.3337C15.4163 13.7478 15.0806 14.0837 14.6665 14.0837C14.2525 14.0836 13.9167 13.7477 13.9165 13.3337V12.7498H2.0835V13.3337C2.08332 13.7478 1.7476 14.0837 1.3335 14.0837C0.919391 14.0837 0.583672 13.7478 0.583496 13.3337V7.99976C0.583582 7.44734 0.803224 6.91772 1.19385 6.5271C1.40127 6.31967 1.64805 6.16106 1.9165 6.05737V3.99976C1.91659 3.44742 2.13633 2.91771 2.52686 2.5271C2.91756 2.1364 3.44795 1.91675 4.00049 1.91675H12.0005C12.5529 1.91683 13.0825 2.13648 13.4731 2.5271C13.8638 2.91772 14.0834 3.44734 14.0835 3.99976V6.05737Z" fill="#1D7AF2"/>
</svg>
