<svg width="30" height="30" viewBox="0 0 30 30" fill="none" xmlns="http://www.w3.org/2000/svg">
<path d="M1.5 8.1748C1.50002 7.20636 1.67113 6.26651 2.02148 5.39062H2.02246C2.37731 4.49137 2.93226 3.67647 3.68555 2.96191C4.63644 2.02588 5.75322 1.50006 6.9873 1.5C7.47727 1.5 7.97658 1.60438 8.43262 1.82324L8.43164 1.82422C8.90007 2.04292 9.3283 2.37612 9.66016 2.85547H9.65918L12.5488 6.92773C12.81 7.29053 13.0151 7.64705 13.1631 8.00879H13.1621C13.3102 8.35852 13.4121 8.75088 13.4121 9.15039C13.412 9.64057 13.2695 10.1075 13.0195 10.5283L13.0205 10.5293C13.0188 10.5323 13.0164 10.5351 13.0146 10.5381C13.0109 10.5444 13.0077 10.5514 13.0039 10.5576L13.0029 10.5566C12.789 10.9277 12.5011 11.2842 12.1699 11.6172L12.1709 11.6182L11.3311 12.4902C11.3332 12.4955 11.3346 12.5012 11.3369 12.5068C11.5187 12.83 11.8477 13.2936 12.3564 13.8955L12.7773 14.376C13.2007 14.8528 13.6441 15.3328 14.1133 15.8115L14.6074 16.291C15.0953 16.7588 15.5683 17.1939 16.0449 17.5986H16.0459C16.6537 18.113 17.1236 18.4362 17.46 18.6172C17.4653 18.6195 17.4705 18.6218 17.4756 18.624L18.3105 17.8008C18.6478 17.4642 19.0111 17.165 19.4004 16.9531C19.8227 16.6977 20.2856 16.5498 20.7998 16.5498C21.1839 16.5498 21.5627 16.6322 21.9414 16.7871C22.2106 16.8972 22.4746 17.0383 22.7373 17.2021L23 17.373L23.0078 17.3789L23.0166 17.3848L27.1543 20.3223H27.1533C27.5458 20.5958 27.866 20.9335 28.0879 21.3496L28.1777 21.5352L28.1914 21.5664C28.3528 21.97 28.4628 22.4093 28.4629 22.9121C28.4629 23.5121 28.3292 24.1208 28.0547 24.7021C27.834 25.1694 27.5542 25.6168 27.1982 26.041L27.041 26.2217C26.3417 26.9923 25.5476 27.5718 24.6338 27.9473C23.7574 28.3123 22.8143 28.5 21.8125 28.5C20.3795 28.5 18.8835 28.163 17.3457 27.5078C15.8316 26.8627 14.3282 25.9981 12.8486 24.9209L12.8477 24.9199C11.369 23.8399 9.96842 22.645 8.63379 21.3232L8.62695 21.3164C7.3053 19.9819 6.11028 18.5806 5.04199 17.1133L5.03809 17.1094C3.9779 15.6355 3.11337 14.1456 2.47949 12.6533L2.47852 12.6504C1.83644 11.1254 1.5 9.63079 1.5 8.1748ZM3.5 8.1748C3.5 9.31784 3.76337 10.5474 4.32031 11.8711C4.88579 13.2023 5.66999 14.562 6.6582 15.9365L7.04199 16.4521C7.94787 17.6467 8.94699 18.7971 10.041 19.9023L10.5186 20.3662C11.6384 21.4356 12.8051 22.4116 14.0264 23.3037L14.54 23.668C15.7394 24.4948 16.9391 25.1606 18.1299 25.668C19.4668 26.2375 20.6958 26.5 21.8125 26.5C22.5606 26.5 23.2417 26.3614 23.8652 26.1016L23.8711 26.0996C24.48 25.85 25.0352 25.4558 25.5596 24.8779C25.852 24.5552 26.0734 24.2134 26.2461 23.8477C26.3964 23.5292 26.4629 23.212 26.4629 22.9121C26.4628 22.7205 26.4236 22.5398 26.3398 22.3262C26.2863 22.2113 26.1942 22.0904 26.0059 21.96L25.9961 21.9531L21.875 19.0273L21.6777 18.8984C21.4893 18.781 21.3269 18.6963 21.1836 18.6377C21.0125 18.5677 20.8907 18.5498 20.7998 18.5498C20.6924 18.5498 20.583 18.5755 20.4326 18.667L20.4043 18.6836L20.375 18.6992C20.2101 18.7853 19.9917 18.9477 19.7197 19.2197L19.7148 19.2246L18.7646 20.1621C18.4505 20.4739 18.0391 20.6621 17.5498 20.6621C17.36 20.6621 17.1327 20.641 16.8867 20.5488L16.8652 20.541L16.8438 20.5312C16.7862 20.5066 16.7332 20.4824 16.6992 20.4668C16.6806 20.4583 16.6671 20.4521 16.6562 20.4473C16.6513 20.4451 16.6472 20.4435 16.6445 20.4424C16.6422 20.4414 16.6406 20.4414 16.6406 20.4414L16.5918 20.4209L16.5449 20.3965C16.0327 20.1253 15.4335 19.701 14.7539 19.126L14.7529 19.125C14.0644 18.5404 13.395 17.9087 12.7119 17.2383L12.7051 17.2324L12.6982 17.2256C12.0304 16.5449 11.4164 15.8658 10.8438 15.2041L10.8369 15.1963C10.2692 14.5254 9.83183 13.9278 9.55957 13.4287L9.5166 13.3506L9.48926 13.2666C9.49059 13.2705 9.48933 13.2654 9.47168 13.2236C9.45676 13.1884 9.42883 13.124 9.40137 13.0508L9.38086 12.998L9.36719 12.9424C9.3258 12.7768 9.2998 12.6068 9.2998 12.4121C9.29989 11.9756 9.44829 11.5568 9.7793 11.2188L10.7295 10.2314L10.7432 10.2178C10.9976 9.96334 11.1727 9.73446 11.2793 9.5459L11.2871 9.53125L11.2959 9.51758C11.3852 9.37093 11.412 9.24903 11.4121 9.15039C11.4121 9.08056 11.3919 8.95279 11.3184 8.78125L11.3154 8.77344L11.3115 8.7666C11.2345 8.57835 11.1146 8.35886 10.9258 8.09668L10.9219 8.09082L8.02148 4.00391L8.01562 3.99414C7.90058 3.82796 7.75748 3.71425 7.58105 3.63281L7.56738 3.62695C7.39847 3.54587 7.19727 3.5 6.9873 3.5C6.37153 3.50005 5.73786 3.74884 5.08887 4.3877L5.08105 4.39551L5.07324 4.40234C4.51119 4.93264 4.12367 5.51176 3.88086 6.12891L3.87891 6.13379C3.62931 6.75779 3.50002 7.44339 3.5 8.1748Z" fill="white"/>
<path d="M22.125 11.25C22.125 11.1014 22.0553 10.7909 21.833 10.3584C21.6211 9.94622 21.3095 9.49963 20.9316 9.09473L20.9297 9.09277C20.2132 8.32026 19.3972 7.875 18.75 7.875C18.1977 7.875 17.75 7.42728 17.75 6.875C17.75 6.32272 18.1977 5.875 18.75 5.875C20.2017 5.875 21.5101 6.77876 22.3936 7.73047L22.5762 7.93262C22.9937 8.41167 23.3483 8.93272 23.6113 9.44434C23.9015 10.0087 24.125 10.6486 24.125 11.25C24.125 11.8023 23.6773 12.25 23.125 12.25C22.5727 12.25 22.125 11.8023 22.125 11.25Z" fill="white"/>
<path d="M26.5 11.25C26.5 6.96479 23.0352 3.5 18.75 3.5C18.1977 3.5 17.75 3.05228 17.75 2.5C17.75 1.94772 18.1977 1.5 18.75 1.5C24.1398 1.5 28.5 5.86022 28.5 11.25C28.5 11.8023 28.0523 12.25 27.5 12.25C26.9477 12.25 26.5 11.8023 26.5 11.25Z" fill="white"/>
</svg>
