<svg width="16" height="16" viewBox="0 0 16 16" fill="none" xmlns="http://www.w3.org/2000/svg">
<path d="M13.5 8C13.5 4.96243 11.0376 2.5 8 2.5C4.96243 2.5 2.5 4.96243 2.5 8C2.5 11.0376 4.96243 13.5 8 13.5C11.0376 13.5 13.5 11.0376 13.5 8ZM9.64648 6.31348C9.84175 6.11821 10.1583 6.11821 10.3535 6.31348C10.5486 6.50875 10.5487 6.8253 10.3535 7.02051L7.68652 9.68652C7.49126 9.88179 7.17475 9.88179 6.97949 9.68652L5.64648 8.35352C5.45122 8.15825 5.45122 7.84175 5.64648 7.64648C5.84175 7.45122 6.15825 7.45122 6.35352 7.64648L7.33301 8.62598L9.64648 6.31348ZM14.5 8C14.5 11.5899 11.5899 14.5 8 14.5C4.41015 14.5 1.5 11.5899 1.5 8C1.5 4.41015 4.41015 1.5 8 1.5C11.5899 1.5 14.5 4.41015 14.5 8Z" fill="#1D7AF2"/>
</svg>
