<svg width="24" height="24" viewBox="0 0 24 24" fill="none" xmlns="http://www.w3.org/2000/svg">
<path d="M17.5859 5.64736C17.7806 5.45174 18.0972 5.45068 18.2929 5.64541C18.4884 5.84009 18.4893 6.15671 18.2948 6.35244L12.705 11.9696L18.3544 17.6474L18.4179 17.7255C18.5458 17.9199 18.5239 18.1839 18.3525 18.3544C18.1567 18.5491 17.8402 18.5482 17.6454 18.3524L11.9999 12.6786L6.35441 18.3524C6.15967 18.5482 5.84314 18.5491 5.64738 18.3544C5.45166 18.1597 5.45074 17.8431 5.64543 17.6474L11.2939 11.9696L5.705 6.35244L5.64152 6.27432C5.51375 6.07995 5.53572 5.8159 5.70695 5.64541C5.90266 5.45068 6.2192 5.45174 6.41398 5.64736L11.9999 11.2606L17.5859 5.64736Z" fill="#B32318"/>
</svg>
