<svg width="36" height="36" viewBox="0 0 36 36" fill="none" xmlns="http://www.w3.org/2000/svg">
<path d="M32.002 18.0015C32.002 10.2695 25.7339 4.00146 18.002 4.00146C10.27 4.00146 4.00195 10.2695 4.00195 18.0015C4.00195 25.7335 10.27 32.0015 18.002 32.0015C25.7339 32.0015 32.002 25.7335 32.002 18.0015ZM34.002 18.0015C34.002 26.838 26.8385 34.0015 18.002 34.0015C9.1654 34.0015 2.00195 26.838 2.00195 18.0015C2.00195 9.16491 9.1654 2.00146 18.002 2.00146C26.8385 2.00146 34.002 9.16491 34.002 18.0015Z" fill="white"/>
<path d="M21.7929 12.793C22.1834 12.4024 22.8164 12.4024 23.207 12.793C23.5975 13.1835 23.5975 13.8165 23.207 14.207L14.207 23.207C13.8164 23.5975 13.1834 23.5975 12.7929 23.207C12.4024 22.8165 12.4024 22.1835 12.7929 21.793L21.7929 12.793Z" fill="white"/>
<path d="M12.7929 12.793C13.1834 12.4024 13.8164 12.4024 14.207 12.793L23.207 21.793C23.5975 22.1835 23.5975 22.8165 23.207 23.207C22.8164 23.5975 22.1834 23.5975 21.7929 23.207L12.7929 14.207C12.4024 13.8165 12.4024 13.1835 12.7929 12.793Z" fill="white"/>
</svg>
