<svg width="32" height="32" viewBox="0 0 32 32" fill="none" xmlns="http://www.w3.org/2000/svg">
<path d="M28.334 16C28.3338 9.18864 22.8114 3.66699 16 3.66699C9.18875 3.66717 3.66717 9.18875 3.66699 16C3.66699 22.8114 9.18864 28.3338 16 28.334C22.8115 28.334 28.334 22.8115 28.334 16ZM21.334 15C21.886 15.0002 22.3338 15.448 22.334 16C22.334 16.5522 21.8861 16.9998 21.334 17H10.667C10.1147 17 9.66699 16.5523 9.66699 16C9.66717 15.4479 10.1148 15 10.667 15H21.334ZM30.334 16C30.334 23.9161 23.9161 30.334 16 30.334C8.08407 30.3338 1.66699 23.916 1.66699 16C1.66717 8.08418 8.08418 1.66717 16 1.66699C23.916 1.66699 30.3338 8.08407 30.334 16Z" fill="#323232"/>
</svg>
