<svg width="20" height="20" viewBox="0 0 20 20" fill="none" xmlns="http://www.w3.org/2000/svg">
<path d="M7.40035 3.83359C6.73368 0.950262 2.39201 0.941928 1.72535 3.83359C1.33368 5.52526 2.40868 6.95859 3.34201 7.85026C4.02535 8.49193 5.10035 8.49193 5.78368 7.85026C6.71701 6.95859 7.78368 5.52526 7.40035 3.83359ZM4.59201 5.16693C4.13368 5.16693 3.75868 4.79193 3.75868 4.33359C3.75868 3.87526 4.12535 3.50026 4.58368 3.50026H4.59201C5.05868 3.50026 5.42535 3.87526 5.42535 4.33359C5.42535 4.79193 5.05868 5.16693 4.59201 5.16693Z" fill="#1D7AF2"/>
<path d="M18.2583 13.8336C17.5917 10.9503 13.2333 10.9419 12.5583 13.8336C12.1667 15.5253 13.2417 16.9586 14.1833 17.8503C14.8667 18.4919 15.95 18.4919 16.6333 17.8503C17.575 16.9586 18.65 15.5253 18.2583 13.8336ZM15.4417 15.1669C14.9833 15.1669 14.6083 14.7919 14.6083 14.3336C14.6083 13.8753 14.975 13.5003 15.4333 13.5003H15.4417C15.9 13.5003 16.275 13.8753 16.275 14.3336C16.275 14.7919 15.9 15.1669 15.4417 15.1669Z" fill="#1D7AF2"/>
<path d="M9.99954 16.4587H7.76621C6.79954 16.4587 5.95788 15.8753 5.62454 14.9753C5.28288 14.0753 5.53288 13.0837 6.25788 12.442L12.9162 6.61699C13.3162 6.26699 13.3245 5.79199 13.2079 5.46699C13.0829 5.14199 12.7662 4.79199 12.2329 4.79199H9.99954C9.65788 4.79199 9.37454 4.50866 9.37454 4.16699C9.37454 3.82533 9.65788 3.54199 9.99954 3.54199H12.2329C13.1995 3.54199 14.0412 4.12533 14.3745 5.02533C14.7162 5.92533 14.4662 6.91699 13.7412 7.55866L7.08288 13.3837C6.68288 13.7337 6.67454 14.2087 6.79121 14.5337C6.91621 14.8587 7.23288 15.2087 7.76621 15.2087H9.99954C10.3412 15.2087 10.6245 15.492 10.6245 15.8337C10.6245 16.1753 10.3412 16.4587 9.99954 16.4587Z" fill="#1D7AF2"/>
</svg>
