<svg width="30" height="30" viewBox="0 0 30 30" fill="none" xmlns="http://www.w3.org/2000/svg">
<path d="M26.5 14.375V10.625C26.5 8.6281 25.9343 7.36594 25.1006 6.5918C24.2535 5.80538 22.9715 5.375 21.25 5.375H8.75C7.0285 5.375 5.74652 5.80538 4.89941 6.5918C4.06573 7.36594 3.5 8.6281 3.5 10.625V19.375C3.5 21.3719 4.06573 22.6341 4.89941 23.4082C5.74652 24.1946 7.0285 24.625 8.75 24.625H15C15.5523 24.625 16 25.0727 16 25.625C16 26.1773 15.5523 26.625 15 26.625H8.75C6.72171 26.625 4.87848 26.1177 3.53809 24.873C2.18447 23.6159 1.5 21.7529 1.5 19.375V10.625C1.5 8.24708 2.18447 6.38406 3.53809 5.12695C4.87848 3.8823 6.72171 3.375 8.75 3.375H21.25C23.2783 3.375 25.1215 3.8823 26.4619 5.12695C27.8155 6.38406 28.5 8.24708 28.5 10.625V14.375C28.5 14.9273 28.0523 15.375 27.5 15.375C26.9477 15.375 26.5 14.9273 26.5 14.375Z" fill="white"/>
<path d="M20.6258 10.4687C21.0573 10.124 21.6864 10.1944 22.031 10.6259C22.3757 11.0574 22.3053 11.6865 21.8738 12.0312L17.9617 15.1562L17.9597 15.1572C16.3077 16.4722 13.6791 16.4723 12.0271 15.1572L12.0242 15.1552L8.12479 12.0302C7.69384 11.6849 7.62429 11.0559 7.96951 10.6249C8.31482 10.194 8.9438 10.1244 9.37479 10.4697L13.2752 13.5947C14.1985 14.3274 15.7925 14.3268 16.7146 13.5927L20.6258 10.4687Z" fill="white"/>
<path d="M25.1599 16.7575C26.0138 16.6697 26.7946 17.0552 27.4822 17.7428C28.1733 18.434 28.563 19.2161 28.4783 20.0719C28.3987 20.8746 27.9201 21.4933 27.4822 21.9313L23.0574 26.3571L23.0554 26.3551C22.8675 26.5485 22.642 26.6902 22.4568 26.7828C22.2579 26.8823 22.0146 26.9734 21.7683 27.0123C21.7628 27.0132 21.7572 27.0135 21.7517 27.0143L20.0642 27.2526L20.0632 27.2516C19.4955 27.3318 18.9068 27.1831 18.4802 26.7565C18.053 26.3291 17.9039 25.7391 17.9851 25.1705L18.2224 23.485C18.2232 23.4795 18.2235 23.4739 18.2244 23.4684C18.2639 23.2181 18.3569 22.9764 18.4558 22.7809C18.5547 22.5853 18.6967 22.3642 18.8806 22.1803L23.3054 17.7545C23.7435 17.3165 24.3611 16.8396 25.1599 16.7575ZM25.365 18.7477C25.2515 18.7593 25.0438 18.8452 24.7195 19.1696L20.2947 23.5944C20.3032 23.5858 20.298 23.5886 20.2839 23.609C20.2708 23.6281 20.256 23.6544 20.241 23.6842C20.226 23.7139 20.2144 23.7414 20.2068 23.7633C20.2046 23.7697 20.2011 23.7742 20.1999 23.778L19.9949 25.2418L21.4597 25.0348C21.4643 25.0335 21.4715 25.0319 21.4802 25.0289C21.5041 25.0207 21.5329 25.0085 21.5622 24.9938C21.5916 24.9791 21.6144 24.9656 21.6286 24.9557C21.6452 24.9442 21.6377 24.947 21.6169 24.9694C21.6253 24.9603 21.6346 24.9507 21.6433 24.942L26.0681 20.5172C26.3922 20.193 26.4768 19.9873 26.488 19.8746C26.4939 19.8149 26.5016 19.5905 26.0681 19.1569C25.6437 18.7325 25.424 18.7417 25.365 18.7477Z" fill="white"/>
<path d="M23.1075 18.1363C23.6396 17.9886 24.1911 18.3005 24.3389 18.8326C24.6201 19.8445 25.406 20.6306 26.418 20.9117C26.95 21.0596 27.2611 21.6111 27.1133 22.1431C26.9654 22.6749 26.4148 22.986 25.8829 22.8384C24.1949 22.3696 22.8801 21.0557 22.4112 19.3677C22.2635 18.8356 22.5754 18.2841 23.1075 18.1363Z" fill="white"/>
</svg>
