<svg width="68" height="68" viewBox="0 0 68 68" fill="none" xmlns="http://www.w3.org/2000/svg">
<path d="M52.333 31.167C52.333 19.4771 42.8569 10.0002 31.167 10C19.477 10 10 19.477 10 31.167C10.0002 42.8569 19.4771 52.333 31.167 52.333C36.9175 52.3329 42.1306 50.0382 45.9453 46.3164C45.9949 46.2455 46.0509 46.1776 46.1143 46.1143C46.1776 46.0509 46.2455 45.9949 46.3164 45.9453C50.0382 42.1306 52.3329 36.9175 52.333 31.167ZM29.667 39.667V32.667H22.667C21.8387 32.667 21.1672 31.9953 21.167 31.167C21.167 30.3386 21.8386 29.667 22.667 29.667H29.667V22.667C29.667 21.8386 30.3386 21.167 31.167 21.167C31.9953 21.1672 32.667 21.8387 32.667 22.667V29.667H39.667C40.4953 29.6672 41.167 30.3387 41.167 31.167C41.1668 31.9952 40.4952 32.6668 39.667 32.667H32.667V39.667C32.6668 40.4952 31.9952 41.1668 31.167 41.167C30.3387 41.167 29.6672 40.4953 29.667 39.667ZM55.333 31.167C55.3329 37.3005 53.0465 42.8988 49.2812 47.1602L60.5605 58.4395C61.1463 59.0252 61.1463 59.9748 60.5605 60.5605C59.9748 61.1463 59.0252 61.1463 58.4395 60.5605L47.1602 49.2812C42.8988 53.0465 37.3005 55.3329 31.167 55.333C17.8202 55.333 7.00018 44.5137 7 31.167C7 17.8201 17.8201 7 31.167 7C44.5137 7.00018 55.333 17.8202 55.333 31.167Z" fill="white"/>
</svg>
