<svg width="32" height="32" viewBox="0 0 32 32" fill="none" xmlns="http://www.w3.org/2000/svg">
<g clip-path="url(#clip0_2180_2298)">
<path d="M15.61 0H16.5106C19.0662 0.09375 21.6069 0.77875 23.8319 2.04688C26.8575 3.74125 29.3063 6.4475 30.6806 9.63313C31.5288 11.5681 31.9675 13.6763 32 15.7875V16.2612C31.9587 18.4975 31.4569 20.7256 30.5075 22.7519C29.4544 25.0044 27.8725 27.0088 25.92 28.5487C24.0413 30.0406 21.8225 31.1044 19.4781 31.6187C18.4562 31.8531 17.4094 31.9606 16.3625 32H15.6631C13.0631 31.9394 10.4794 31.2481 8.20875 29.9756C4.78062 28.0669 2.09562 24.86 0.84375 21.1388C0.31625 19.5912 0.040625 17.9619 0 16.3288V15.6438C0.0725 12.2369 1.26062 8.86312 3.36812 6.18313C4.51125 4.705 5.9225 3.43625 7.50437 2.4425C9.91813 0.910625 12.755 0.074375 15.61 0ZM22.2169 9.6675C21.8438 9.7375 21.4837 9.86313 21.1269 9.98875C20.1413 10.3431 19.1719 10.7425 18.2044 11.1431C14.4269 12.68 10.7037 14.3444 6.95687 15.9537C6.67 16.0875 6.37375 16.2331 6.16437 16.4775C6.01375 16.6431 6.01 16.9188 6.16687 17.0819C6.385 17.3144 6.70437 17.4019 6.99312 17.5112C7.7775 17.7669 8.56312 18.0238 9.36625 18.2144C9.81812 18.3125 10.2912 18.4162 10.7506 18.3019C11.4694 18.1437 12.0519 17.6713 12.6531 17.2763C14.6006 15.9713 16.5381 14.6494 18.5138 13.3862C18.6831 13.2712 18.9619 13.1294 19.1219 13.3294C19.2656 13.575 19.0087 13.7688 18.8662 13.9369C17.3369 15.5294 15.655 16.9656 14.0919 18.5238C13.8413 18.7838 13.5456 19.095 13.5887 19.4862C13.6575 19.8506 13.9669 20.1025 14.2494 20.3113C15.6544 21.2613 17.0619 22.2062 18.4656 23.1581C18.9294 23.4819 19.3944 23.8419 19.9531 23.9819C20.2844 24.055 20.6825 24.075 20.9519 23.8312C21.3381 23.485 21.4744 22.9575 21.5837 22.4694C21.9606 20.4388 22.3119 18.4037 22.6425 16.365C22.9287 14.5406 23.2231 12.7169 23.415 10.88C23.4413 10.5225 23.4531 10.0925 23.1694 9.82687C22.9044 9.61562 22.5362 9.60687 22.2169 9.6675Z" fill="#27A6E5"/>
<path d="M22.2173 9.66746C22.5367 9.60683 22.9048 9.61558 23.1698 9.82683C23.4536 10.0925 23.4417 10.5225 23.4155 10.88C23.2236 12.7168 22.9292 14.5406 22.643 16.365C22.3123 18.4037 21.9611 20.4387 21.5842 22.4693C21.4748 22.9575 21.3386 23.485 20.9523 23.8312C20.683 24.075 20.2848 24.055 19.9536 23.9818C19.3948 23.8418 18.9298 23.4818 18.4661 23.1581C17.0623 22.2062 15.6548 21.2612 14.2498 20.3112C13.9673 20.1025 13.658 19.8506 13.5892 19.4862C13.5461 19.095 13.8417 18.7837 14.0923 18.5237C15.6555 16.9656 17.3373 15.5293 18.8667 13.9368C19.0092 13.7687 19.2661 13.575 19.1223 13.3293C18.9623 13.1293 18.6836 13.2712 18.5142 13.3862C16.5386 14.6493 14.6011 15.9712 12.6536 17.2762C12.0523 17.6712 11.4698 18.1437 10.7511 18.3018C10.2917 18.4162 9.81859 18.3125 9.36672 18.2143C8.56359 18.0237 7.77797 17.7668 6.99359 17.5112C6.70484 17.4018 6.38547 17.3143 6.16734 17.0818C6.01047 16.9187 6.01422 16.6431 6.16484 16.4775C6.37422 16.2331 6.67047 16.0875 6.95734 15.9537C10.7042 14.3443 14.4273 12.68 18.2048 11.1431C19.1723 10.7425 20.1417 10.3431 21.1273 9.98871C21.4842 9.86308 21.8442 9.73746 22.2173 9.66746Z" fill="white"/>
</g>
<defs>
<clipPath id="clip0_2180_2298">
<rect width="32" height="32" rx="16" fill="white"/>
</clipPath>
</defs>
</svg>
