<svg width="32" height="32" viewBox="0 0 32 32" fill="none" xmlns="http://www.w3.org/2000/svg">
<g clip-path="url(#clip0_2180_2299)">
<path d="M15.5856 0H16.4131C19.0019 0.075 21.5775 0.76375 23.8306 2.04688C26.8413 3.73312 29.2825 6.42 30.6588 9.58562C31.5106 11.5081 31.9538 13.6038 32 15.7044V16.4144C31.9287 18.7388 31.3694 21.05 30.3256 23.13C29.275 25.2281 27.7644 27.095 25.9212 28.5481C24.0462 30.0381 21.8319 31.1012 19.4919 31.6162C18.4819 31.85 17.4469 31.9569 16.4125 32H15.5875C13.0138 31.9256 10.4587 31.2375 8.21125 29.9775C4.84625 28.1038 2.19562 24.9819 0.915625 21.3469C0.350625 19.7644 0.054375 18.0912 0 16.4131V15.5856C0.05625 13.8131 0.385625 12.0469 1.0125 10.3869C2.20937 7.18062 4.46937 4.38438 7.3525 2.54125C9.79125 0.95125 12.6794 0.083125 15.5856 0ZM13.6163 6.29688C11.5688 6.79875 9.6975 7.98063 8.35563 9.60563C7.01188 11.2238 6.21063 13.28 6.09812 15.38C5.99687 17.1175 6.37437 18.875 7.16 20.4263C6.81 22.1194 6.46125 23.8131 6.11375 25.5069C6.05375 25.7031 6.17875 25.925 6.37437 25.9806C6.4875 26.0175 6.60437 25.9788 6.71562 25.9569C8.335 25.5675 9.95813 25.1938 11.5769 24.8013C13.7219 25.8663 16.2512 26.1306 18.5637 25.4994C21.12 24.83 23.365 23.0812 24.6481 20.7725C25.5275 19.2137 25.9681 17.4131 25.9125 15.6244C25.8581 13.6769 25.2131 11.7506 24.0794 10.1656C22.9331 8.5525 21.2925 7.29562 19.4338 6.615C17.5837 5.93375 15.5294 5.8175 13.6163 6.29688Z" fill="#1DB50B"/>
<path d="M11.7002 9.45245C13.1709 8.46495 14.9896 8.01495 16.7515 8.18995C18.4446 8.34682 20.0759 9.08557 21.3115 10.2537C22.5584 11.4143 23.4021 12.9974 23.6665 14.6812C23.949 16.4087 23.6252 18.2293 22.7565 19.7499C21.8434 21.3706 20.3252 22.6381 18.5659 23.2437C16.8752 23.8381 14.9777 23.8224 13.3002 23.1912C12.7977 23.0074 12.3265 22.7524 11.8465 22.5199C10.8234 22.7624 9.80024 23.0068 8.77587 23.2462C8.99087 22.2037 9.20462 21.1612 9.42024 20.1193C9.18524 19.6456 8.92774 19.1812 8.74274 18.6849C8.10899 17.0393 8.06587 15.1774 8.61774 13.5037C9.15024 11.8568 10.2577 10.4074 11.7002 9.45245ZM12.5309 11.1681C12.3265 11.2274 12.1796 11.3906 12.0265 11.5281C11.579 11.9556 11.1609 12.4693 11.0396 13.0912C10.9102 13.9712 11.1377 14.8693 11.5396 15.6512C12.0459 16.6343 12.7865 17.4743 13.5852 18.2293C14.4871 19.0724 15.4859 19.8412 16.6327 20.3187C17.5321 20.6962 18.549 20.8712 19.509 20.6387C20.119 20.4806 20.5859 20.0099 20.9571 19.5237C21.1077 19.3043 21.3071 19.0918 21.324 18.8118C21.354 18.4849 21.1277 18.1637 20.8152 18.0712C20.199 17.8906 19.5796 17.7212 18.9627 17.5431C18.7452 17.4699 18.494 17.4806 18.3009 17.6112C18.0409 17.8062 17.8515 18.0793 17.5934 18.2762C17.3515 18.4487 17.0221 18.4124 16.7777 18.2656C15.9927 17.8424 15.3221 17.2431 14.674 16.6387C14.3084 16.2743 13.9365 15.9068 13.6615 15.4668C13.5146 15.2449 13.5059 14.9393 13.6515 14.7149C13.8077 14.4787 14.0046 14.2724 14.1584 14.0343C14.2927 13.8212 14.2852 13.5437 14.1721 13.3231C13.9084 12.7356 13.6509 12.1456 13.3852 11.5593C13.2496 11.2393 12.8615 11.0612 12.5309 11.1681Z" fill="#1DB50B"/>
<path d="M13.6163 6.29688C15.5294 5.81751 17.5838 5.93376 19.4338 6.61501C21.2926 7.29563 22.9332 8.55251 24.0794 10.1656C25.2132 11.7506 25.8582 13.6769 25.9126 15.6244C25.9682 17.4131 25.5276 19.2138 24.6482 20.7725C23.3651 23.0813 21.1201 24.83 18.5638 25.4994C16.2513 26.1306 13.7219 25.8663 11.5769 24.8013C9.95818 25.1938 8.33505 25.5675 6.71568 25.9569C6.60443 25.9788 6.48755 26.0175 6.37443 25.9806C6.1788 25.925 6.0538 25.7031 6.1138 25.5069C6.4613 23.8131 6.81005 22.1194 7.16005 20.4263C6.37443 18.875 5.99693 17.1175 6.09818 15.38C6.21068 13.28 7.01193 11.2238 8.35568 9.60563C9.69755 7.98063 11.5688 6.79876 13.6163 6.29688ZM11.7001 9.45251C10.2576 10.4075 9.15005 11.8569 8.61755 13.5038C8.06568 15.1775 8.1088 17.0394 8.74255 18.685C8.92755 19.1813 9.18505 19.6456 9.42005 20.1194C9.20443 21.1613 8.99068 22.2038 8.77568 23.2463C9.80005 23.0069 10.8232 22.7625 11.8463 22.52C12.3263 22.7525 12.7976 23.0075 13.3001 23.1913C14.9776 23.8225 16.875 23.8381 18.5657 23.2438C20.325 22.6381 21.8432 21.3706 22.7563 19.75C23.6251 18.2294 23.9488 16.4088 23.6663 14.6813C23.4019 12.9975 22.5582 11.4144 21.3113 10.2538C20.0757 9.08563 18.4444 8.34688 16.7513 8.19001C14.9894 8.01501 13.1707 8.46501 11.7001 9.45251Z" fill="white"/>
<path d="M12.5305 11.1682C12.8612 11.0613 13.2493 11.2394 13.3849 11.5594C13.6505 12.1457 13.908 12.7357 14.1718 13.3232C14.2849 13.5438 14.2924 13.8213 14.158 14.0344C14.0043 14.2725 13.8074 14.4788 13.6512 14.715C13.5055 14.9394 13.5143 15.245 13.6612 15.4669C13.9362 15.9069 14.308 16.2744 14.6737 16.6388C15.3218 17.2432 15.9924 17.8425 16.7774 18.2657C17.0218 18.4125 17.3512 18.4488 17.593 18.2763C17.8512 18.0794 18.0405 17.8063 18.3005 17.6113C18.4937 17.4807 18.7449 17.47 18.9624 17.5432C19.5793 17.7213 20.1987 17.8907 20.8149 18.0713C21.1274 18.1638 21.3537 18.485 21.3237 18.8119C21.3068 19.0919 21.1074 19.3044 20.9568 19.5238C20.5855 20.01 20.1187 20.4807 19.5087 20.6388C18.5487 20.8713 17.5318 20.6963 16.6324 20.3188C15.4855 19.8413 14.4868 19.0725 13.5849 18.2294C12.7862 17.4744 12.0455 16.6344 11.5393 15.6513C11.1374 14.8694 10.9099 13.9713 11.0393 13.0913C11.1605 12.4694 11.5787 11.9557 12.0262 11.5282C12.1793 11.3907 12.3262 11.2275 12.5305 11.1682Z" fill="white"/>
</g>
<defs>
<clipPath id="clip0_2180_2299">
<rect width="32" height="32" rx="16" fill="white"/>
</clipPath>
</defs>
</svg>
