<svg width="32" height="32" viewBox="0 0 32 32" fill="none" xmlns="http://www.w3.org/2000/svg">
<g clip-path="url(#clip0_2180_2300)">
<path d="M12.6269 0H20.3425C22.6531 0.091875 25.0231 0.053125 27.2544 0.753125C28.1138 1.03313 28.9306 1.47125 29.5938 2.09125C30.3113 2.75 30.8381 3.59875 31.1644 4.51312C31.6912 5.99125 31.82 7.57187 31.9088 9.1275C31.9762 10.3331 31.9788 11.5413 32 12.7487V19.4306C31.9688 21.12 31.9631 22.8144 31.7856 24.4969C31.6575 25.7113 31.4431 26.9375 30.93 28.0544C30.4837 29.0356 29.7619 29.8906 28.8606 30.4837C28.0044 31.0494 27.0113 31.3694 26.0106 31.565C24.1925 31.92 22.3319 31.9269 20.4881 32H12.6631C10.7169 31.97 8.76375 31.9606 6.83063 31.7062C5.42812 31.5087 3.99375 31.1444 2.84687 30.275C2.07 29.6912 1.45125 28.905 1.05313 28.0194C0.5525 26.915 0.341875 25.7063 0.215 24.5081C0.038125 22.8512 0.031875 21.1838 0 19.52V12.7587C0.021875 11.2969 0.02875 9.83313 0.13625 8.37375C0.231875 7.12 0.3775 5.85625 0.7825 4.66C1.08063 3.77562 1.55313 2.94125 2.21563 2.27813C2.84188 1.63438 3.6275 1.16 4.46812 0.851875C5.4225 0.5025 6.43062 0.325 7.43875 0.223125C9.16125 0.033125 10.8962 0.029375 12.6269 0ZM6.07875 10.0206C5.86625 10.0487 5.6425 10.1662 5.575 10.3825C5.47937 10.6894 5.57562 11.0112 5.64 11.3144C5.95 12.5425 6.4625 13.7094 7.03312 14.8363C7.69875 16.13 8.475 17.365 9.32563 18.545C10.165 19.7138 11.2156 20.7412 12.4475 21.4912C13.6956 22.255 15.155 22.7244 16.6281 22.6588C17.0019 22.6413 17.4012 22.6256 17.7281 22.4244C17.9338 22.2969 18.0037 22.0437 18 21.8156C18.0094 21.0412 17.9937 20.2669 18.0081 19.4931C18.0206 19.2825 18.0456 18.9994 18.2763 18.915C18.7331 18.7631 19.1987 18.9913 19.5756 19.2388C20.605 19.9406 21.4363 20.8806 22.2675 21.7987C22.5381 22.0856 22.8025 22.4012 23.17 22.5675C23.45 22.6944 23.7631 22.6631 24.0619 22.6669C24.7431 22.6625 25.425 22.6744 26.1063 22.6606C26.385 22.6531 26.7113 22.5494 26.8206 22.2663C26.9363 21.9519 26.8081 21.6156 26.665 21.3331C26.3738 20.7731 25.9756 20.2788 25.5775 19.7919C25.0781 19.2119 24.5894 18.6194 24.0325 18.0919C23.6994 17.7394 23.2994 17.4319 23.0706 16.995C22.9225 16.7175 23.1012 16.4225 23.2569 16.1938C23.9187 15.2444 24.5619 14.2812 25.165 13.2931C25.5863 12.5919 26.0119 11.8837 26.3006 11.115C26.3781 10.8581 26.49 10.5706 26.3806 10.3075C26.2581 10.0525 25.9437 10.0037 25.6906 10.0025C24.8975 9.99875 24.105 9.99875 23.3125 10.0019C22.9244 9.99125 22.5338 10.2019 22.37 10.5612C21.7519 11.9631 21.0413 13.3337 20.1388 14.5769C19.7525 15.0981 19.3431 15.6188 18.8088 15.9963C18.6406 16.1025 18.4038 16.2162 18.2175 16.0931C18.0263 15.9362 18.0044 15.6656 18.0025 15.4362C18.0025 13.9169 18.0031 12.3975 18.0025 10.8787C17.9963 10.6381 17.9906 10.3688 17.8263 10.1763C17.6838 10.0131 17.4513 9.99813 17.2494 9.99938C16.0612 10.0013 14.8725 9.99813 13.6844 10.0013C13.3938 9.98375 13.0944 10.2025 13.0769 10.5037C13.0575 10.7994 13.2981 11.01 13.4575 11.2288C13.8456 11.7063 13.9981 12.3319 14.0019 12.9369C14.0006 14.0619 14.0037 15.1863 14.0006 16.3113C13.9894 16.5444 13.9975 16.7956 13.8763 17.0037C13.7362 17.1944 13.4487 17.155 13.2744 17.035C12.8769 16.7769 12.5781 16.3988 12.2925 16.0269C11.2806 14.6356 10.5275 13.0725 9.915 11.47C9.7525 11.0731 9.66687 10.6312 9.3975 10.2869C9.18563 10.0162 8.81563 9.98875 8.49875 9.99938C7.69187 10.0131 6.88375 9.97375 6.07875 10.0206Z" fill="#2787F5"/>
<path d="M6.07921 10.0206C6.88421 9.97372 7.69233 10.0131 8.49921 9.99935C8.81608 9.98872 9.18608 10.0162 9.39796 10.2868C9.66733 10.6312 9.75296 11.0731 9.91546 11.47C10.528 13.0725 11.2811 14.6356 12.293 16.0268C12.5786 16.3987 12.8773 16.7768 13.2748 17.035C13.4492 17.155 13.7367 17.1943 13.8767 17.0037C13.998 16.7956 13.9898 16.5443 14.0011 16.3112C14.0042 15.1862 14.0011 14.0618 14.0023 12.9368C13.9986 12.3318 13.8461 11.7062 13.458 11.2287C13.2986 11.01 13.058 10.7993 13.0773 10.5037C13.0948 10.2025 13.3942 9.98372 13.6848 10.0012C14.873 9.9981 16.0617 10.0012 17.2498 9.99935C17.4517 9.9981 17.6842 10.0131 17.8267 10.1762C17.9911 10.3687 17.9967 10.6381 18.003 10.8787C18.0036 12.3975 18.003 13.9168 18.003 15.4362C18.0048 15.6656 18.0267 15.9362 18.218 16.0931C18.4042 16.2162 18.6411 16.1025 18.8092 15.9962C19.3436 15.6187 19.753 15.0981 20.1392 14.5768C21.0417 13.3337 21.7523 11.9631 22.3705 10.5612C22.5342 10.2018 22.9248 9.99122 23.313 10.0018C24.1055 9.99872 24.898 9.99872 25.6911 10.0025C25.9442 10.0037 26.2586 10.0525 26.3811 10.3075C26.4905 10.5706 26.3786 10.8581 26.3011 11.115C26.0123 11.8837 25.5867 12.5918 25.1655 13.2931C24.5623 14.2812 23.9192 15.2443 23.2573 16.1937C23.1017 16.4225 22.923 16.7175 23.0711 16.995C23.2998 17.4318 23.6998 17.7393 24.033 18.0918C24.5898 18.6193 25.0786 19.2118 25.578 19.7918C25.9761 20.2787 26.3742 20.7731 26.6655 21.3331C26.8086 21.6156 26.9367 21.9518 26.8211 22.2662C26.7117 22.5493 26.3855 22.6531 26.1067 22.6606C25.4255 22.6743 24.7436 22.6625 24.0623 22.6668C23.7636 22.6631 23.4505 22.6943 23.1705 22.5675C22.803 22.4012 22.5386 22.0856 22.268 21.7987C21.4367 20.8806 20.6055 19.9406 19.5761 19.2387C19.1992 18.9912 18.7336 18.7631 18.2767 18.915C18.0461 18.9993 18.0211 19.2825 18.0086 19.4931C17.9942 20.2668 18.0098 21.0412 18.0005 21.8156C18.0042 22.0437 17.9342 22.2968 17.7286 22.4243C17.4017 22.6256 17.0023 22.6412 16.6286 22.6587C15.1555 22.7243 13.6961 22.255 12.448 21.4912C11.2161 20.7412 10.1655 19.7137 9.32608 18.545C8.47546 17.365 7.69921 16.13 7.03358 14.8362C6.46296 13.7093 5.95046 12.5425 5.64046 11.3143C5.57608 11.0112 5.47983 10.6893 5.57546 10.3825C5.64296 10.1662 5.86671 10.0487 6.07921 10.0206Z" fill="white"/>
</g>
<defs>
<clipPath id="clip0_2180_2300">
<rect width="32" height="32" rx="16" fill="white"/>
</clipPath>
</defs>
</svg>
