<svg width="32" height="32" viewBox="0 0 32 32" fill="none" xmlns="http://www.w3.org/2000/svg">
<g clip-path="url(#clip0_2180_2301)">
<path d="M32 27.3173C32 29.9036 29.9141 32 27.3411 32H4.65885C2.08581 32 0 29.9036 0 27.3173V4.68275C0 2.09651 2.08581 0 4.65885 0H27.3411C29.9142 0 32 2.09651 32 4.68275V27.3173Z" fill="#FAAB62"/>
<path d="M31.8354 27.2011C31.8354 29.7607 29.7709 31.8357 27.2243 31.8357H4.77501C2.22843 31.8357 0.164062 29.7607 0.164062 27.2011V4.79902C0.164062 2.23938 2.22851 0.164429 4.77501 0.164429H27.2243C29.7709 0.164429 31.8354 2.23946 31.8354 4.79902V27.2011Z" fill="#F7931E"/>
<path d="M15.9826 4.78247C12.8111 4.78247 10.2402 7.36664 10.2402 10.5543C10.2402 13.742 12.8111 16.3263 15.9826 16.3263C19.154 16.3263 21.7249 13.742 21.7249 10.5543C21.7249 7.36664 19.154 4.78247 15.9826 4.78247ZM15.9826 12.9404C14.6716 12.9404 13.6088 11.8721 13.6088 10.5544C13.6088 9.23667 14.6716 8.16842 15.9826 8.16842C17.2936 8.16842 18.3564 9.23667 18.3564 10.5544C18.3564 11.8721 17.2936 12.9404 15.9826 12.9404Z" fill="white"/>
<path d="M18.0092 20.919C20.3081 20.4483 21.6857 19.354 21.7586 19.2953C22.4313 18.753 22.5393 17.7653 21.9998 17.0891C21.4604 16.4129 20.4778 16.3043 19.805 16.8465C19.7908 16.8581 18.3214 17.991 15.9039 17.9926C13.4864 17.991 11.986 16.8581 11.9718 16.8465C11.2989 16.3043 10.3163 16.4129 9.77694 17.0891C9.23745 17.7653 9.34551 18.753 10.0182 19.2953C10.0921 19.3548 11.5266 20.4776 13.8899 20.9373L10.5962 24.3971C9.99758 25.0211 10.0156 26.0146 10.6363 26.6162C10.9393 26.9099 11.3298 27.0558 11.72 27.0558C12.1291 27.0558 12.5378 26.8952 12.8441 26.5758L15.904 23.2995L19.2729 26.597C19.8833 27.2095 20.8717 27.2085 21.481 26.5953C22.0902 25.9819 22.0895 24.9882 21.4793 24.3758L18.0092 20.919Z" fill="white"/>
<path d="M15.9037 17.9926C15.8989 17.9926 15.9085 17.9926 15.9037 17.9927C15.899 17.9926 15.9086 17.9926 15.9037 17.9926Z" fill="white"/>
</g>
<defs>
<clipPath id="clip0_2180_2301">
<rect width="32" height="32" rx="16" fill="white"/>
</clipPath>
</defs>
</svg>
