<svg width="32" height="32" viewBox="0 0 32 32" fill="none" xmlns="http://www.w3.org/2000/svg">
<g clip-path="url(#clip0_2180_2309)">
<path d="M19.0857 19.0857C16.5714 21.68 16.3886 24.9143 16.1714 32C22.7771 32 27.3371 31.9771 29.6914 29.6914C31.9771 27.3371 32 22.56 32 16.1714C24.9143 16.4 21.68 16.5714 19.0857 19.0857ZM0 16.1714C0 22.56 0.0228571 27.3371 2.30857 29.6914C4.66286 31.9771 9.22286 32 15.8286 32C15.6 24.9143 15.4286 21.68 12.9143 19.0857C10.32 16.5714 7.08571 16.3886 0 16.1714ZM15.8286 0C9.23429 0 4.66286 0.0228571 2.30857 2.30857C0.0228571 4.66286 0 9.44 0 15.8286C7.08571 15.6 10.32 15.4286 12.9143 12.9143C15.4286 10.32 15.6114 7.08571 15.8286 0ZM19.0857 12.9143C16.5714 10.32 16.3886 7.08571 16.1714 0C22.7771 0 27.3371 0.0228571 29.6914 2.30857C31.9771 4.66286 32 9.44 32 15.8286C24.9143 15.6 21.68 15.4286 19.0857 12.9143Z" fill="#2C3036"/>
<path d="M32 16.1714V15.8286C24.9143 15.6 21.68 15.4286 19.0857 12.9143C16.5714 10.32 16.3886 7.08571 16.1714 0H15.8286C15.6 7.08571 15.4286 10.32 12.9143 12.9143C10.32 15.4286 7.08571 15.6114 0 15.8286V16.1714C7.08571 16.4 10.32 16.5714 12.9143 19.0857C15.4286 21.68 15.6114 24.9143 15.8286 32H16.1714C16.4 24.9143 16.5714 21.68 19.0857 19.0857C21.68 16.5714 24.9143 16.3886 32 16.1714Z" fill="white"/>
</g>
<defs>
<clipPath id="clip0_2180_2309">
<rect width="32" height="32" rx="16" fill="white"/>
</clipPath>
</defs>
</svg>
